<svg width="198" height="44" viewBox="0 0 198 44" fill="none" xmlns="http://www.w3.org/2000/svg">
<path d="M62 6.87C61.28 4.17 59.15 2.04 56.44 1.31C51.54 4.76837e-07 31.88 0 31.88 0C31.88 0 12.23 4.76837e-07 7.32 1.31C4.62 2.03 2.49 4.16 1.76 6.87C0.449997 11.77 0.449997 22 0.449997 22C0.449997 22 0.449997 32.23 1.76 37.13C2.48 39.83 4.61 41.96 7.32 42.69C12.23 44 31.88 44 31.88 44C31.88 44 51.54 44 56.44 42.69C59.14 41.97 61.27 39.84 62 37.13C63.31 32.23 63.31 22 63.31 22C63.31 22 63.31 11.77 62 6.87Z" fill="#FF0000"/>
<path d="M25.6 31.43L41.93 22L25.6 12.57V31.43Z" fill="white"/>
<path d="M91.69 40.03C90.45 39.19 89.56 37.89 89.04 36.12C88.52 34.35 88.25 32 88.25 29.06V25.06C88.25 22.09 88.55 19.71 89.15 17.91C89.75 16.11 90.69 14.8 91.96 13.98C93.23 13.16 94.9 12.74 96.97 12.74C99.01 12.74 100.64 13.16 101.87 14C103.1 14.84 104 16.15 104.57 17.93C105.14 19.71 105.42 22.09 105.42 25.05V29.05C105.42 31.99 105.14 34.35 104.59 36.13C104.04 37.91 103.14 39.22 101.89 40.04C100.65 40.86 98.96 41.28 96.83 41.28C94.65 41.29 92.93 40.87 91.69 40.03ZM98.66 35.71C99 34.81 99.18 33.34 99.18 31.31V22.72C99.18 20.74 99.01 19.3 98.66 18.38C98.32 17.47 97.71 17.01 96.84 17.01C96 17.01 95.41 17.47 95.06 18.38C94.72 19.29 94.54 20.74 94.54 22.72V31.31C94.54 33.35 94.7 34.82 95.03 35.71C95.36 36.61 95.96 37.06 96.83 37.06C97.71 37.06 98.31 36.61 98.66 35.71Z" fill="#282828"/>
<path d="M187.16 29.13V30.52C187.16 32.29 187.21 33.61 187.32 34.5C187.42 35.38 187.64 36.03 187.97 36.43C188.3 36.83 188.81 37.04 189.5 37.04C190.43 37.04 191.07 36.68 191.41 35.96C191.75 35.24 191.94 34.04 191.97 32.36L197.32 32.67C197.35 32.91 197.36 33.24 197.36 33.66C197.36 36.21 196.66 38.11 195.27 39.37C193.88 40.63 191.91 41.26 189.36 41.26C186.3 41.26 184.16 40.3 182.93 38.38C181.7 36.46 181.09 33.5 181.09 29.48V24.67C181.09 20.53 181.73 17.52 183 15.61C184.27 13.71 186.45 12.76 189.54 12.76C191.67 12.76 193.3 13.15 194.44 13.93C195.58 14.71 196.38 15.92 196.85 17.57C197.31 19.22 197.55 21.5 197.55 24.4V29.12H187.16V29.13ZM187.95 17.53C187.64 17.92 187.43 18.56 187.32 19.44C187.21 20.32 187.16 21.67 187.16 23.46V25.44H191.7V23.46C191.7 21.69 191.64 20.35 191.52 19.44C191.4 18.53 191.18 17.88 190.87 17.51C190.56 17.14 190.07 16.95 189.41 16.95C188.75 16.94 188.26 17.14 187.95 17.53Z" fill="#282828"/>
<path d="M76.59 28.61L69.53 3.12H75.69L78.16 14.67C78.79 17.52 79.25 19.94 79.55 21.95H79.73C79.94 20.51 80.4 18.1 81.12 14.71L83.68 3.11H89.84L82.7 28.61V40.84H76.59V28.61Z" fill="#282828"/>
<path d="M125.45 13.28V40.83H120.6L120.06 37.46H119.93C118.61 40.01 116.63 41.28 114 41.28C112.17 41.28 110.82 40.68 109.95 39.48C109.08 38.28 108.65 36.41 108.65 33.86V13.28H114.85V33.51C114.85 34.74 114.98 35.62 115.25 36.14C115.52 36.66 115.97 36.93 116.6 36.93C117.14 36.93 117.66 36.77 118.15 36.44C118.64 36.11 119.01 35.69 119.25 35.18V13.28H125.45Z" fill="#282828"/>
<path d="M157.27 13.28V40.83H152.42L151.88 37.46H151.75C150.43 40.01 148.45 41.28 145.82 41.28C143.99 41.28 142.64 40.68 141.77 39.48C140.9 38.28 140.47 36.41 140.47 33.86V13.28H146.67V33.51C146.67 34.74 146.8 35.62 147.07 36.14C147.34 36.66 147.79 36.93 148.42 36.93C148.96 36.93 149.48 36.77 149.97 36.44C150.46 36.11 150.83 35.69 151.07 35.18V13.28H157.27Z" fill="#282828"/>
<path d="M142.31 8.11H136.15V40.83H130.08V8.11H123.92V3.12H142.3V8.11H142.31Z" fill="#282828"/>
<path d="M177.8 17.69C177.42 15.95 176.82 14.69 175.98 13.91C175.14 13.13 173.99 12.74 172.52 12.74C171.38 12.74 170.32 13.06 169.33 13.71C168.34 14.35 167.58 15.2 167.04 16.25H166.99V1.73H161.01V40.84H166.13L166.76 38.23H166.89C167.37 39.16 168.09 39.89 169.05 40.43C170.01 40.97 171.07 41.24 172.24 41.24C174.34 41.24 175.88 40.27 176.87 38.34C177.86 36.41 178.35 33.39 178.35 29.28V24.92C178.36 21.84 178.17 19.43 177.8 17.69ZM172.11 28.93C172.11 30.94 172.03 32.51 171.86 33.65C171.7 34.79 171.42 35.6 171.03 36.08C170.64 36.56 170.12 36.8 169.46 36.8C168.95 36.8 168.48 36.68 168.04 36.44C167.61 36.2 167.25 35.84 166.98 35.36V19.71C167.19 18.96 167.55 18.35 168.06 17.87C168.57 17.39 169.12 17.15 169.72 17.15C170.35 17.15 170.84 17.4 171.18 17.89C171.52 18.38 171.76 19.22 171.9 20.38C172.03 21.55 172.1 23.21 172.1 25.37V28.93H172.11Z" fill="#282828"/>
</svg>
